<svg id="eDQFnK5jR8T1" xmlns="http://www.w3.org/2000/svg" xmlns:xlink="http://www.w3.org/1999/xlink" viewBox="0 0 110 110" shape-rendering="geometricPrecision" text-rendering="geometricPrecision">
<style><![CDATA[
#eDQFnK5jR8T2_ts {animation: eDQFnK5jR8T2_ts__ts 2500ms linear infinite normal forwards}@keyframes eDQFnK5jR8T2_ts__ts { 0% {transform: translate(55.825964px,54.269367px) scale(-3.5,-3.5)} 16% {transform: translate(55.825964px,54.269367px) scale(-3.5,-3.5);animation-timing-function: cubic-bezier(0.42,0,0.58,1)} 39.6% {transform: translate(55.825964px,54.269367px) scale(-4.5,-4.5);animation-timing-function: cubic-bezier(0.42,0,0.58,1)} 55.2% {transform: translate(55.825964px,54.269367px) scale(-3.5,-3.5)} 100% {transform: translate(55.825964px,54.269367px) scale(-3.5,-3.5)}}
]]></style>
<g id="eDQFnK5jR8T2_ts" transform="translate(55.825964,54.269367) scale(-3.5,-3.5)"><g transform="translate(-9.036896,-9.146242)" clip-path="url(#eDQFnK5jR8T5)"><g><path d="M15.664,10.0884c-.8185.2843-1.6799.6623-2.3441,1.2095-.7889.6499-1.1097,1.4869-1.3252,2.368-.2766,1.1319-.3871,2.3377-.7225,3.4715-.1242.4211-.3632.5802-.4657.6509-.2592.1784-.5212.2261-.7677.2082-.29216-.0206-.69344-.1284-.95734-.6059-.03763-.0683-.08654-.1724-.11947-.3151-.02399-.1046-.03951-.4316-.06492-.5664-.0635-.3321-.11666-.6642-.16653-.9981-.16605-1.1113-.26156-2.0552-.78607-3.0761-.71174-1.3861-1.42489-2.2341-2.39206-2.60978-.93519-.36325-2.05335-.29493-3.482-.0101-.13595.0321-.27047.05963-.4036.0821-.62989.10728-1.232025-.29583-1.355744-.90767-.123719-.61139.276593-1.20718.900834-1.34156.1303-.02798.25873-.05458.38574-.07889c1.93058-.46599,4.16553-2.12908,5.46435-3.5853.40032-.44903.98645-1.70435,1.58434-2.50516.44125-.590747.93707-.98015,1.35339-1.117746.27898-.092648.51418-.078444.70848-.031661.2822.06788.5165.216966.6962.45409.0978.129799.1886.303627.2319.525617.0207.10687.023.37837.0226.50129.1218.40866.2709.8077.3796,1.22003.2592.98382.7677,1.60667,1.3717,2.42949.565.77008,1.1718,1.25396,2.0614,1.64014.1157.02752,1.0495.25043,1.3792.3784.4817.18759.7113.50177.7946.67102.1416.28711.1561.53798.1279.74713-.0419.30867-.1839.57285-.4361.78613-.1562.13255-.3895.26144-.7018.32423-.2414.0491-.8816.0776-.9714.0817Zm-5.478,1.6034c-.0433-.094-.0894-.1885-.1383-.2839C9.00526,9.37793,7.83958,8.24459,6.42269,7.69467l-.04752-.01789c.94789-.68615,1.80594-1.45302,2.46169-2.18824.27002-.30271.62752-.93153,1.01373-1.5764.35091,1.11224.92481,1.89837,1.64641,2.88218.5514.75082,1.129,1.31587,1.8389,1.77636-.5509.27565-1.0763.59855-1.534.97557-.7621.62785-1.2659,1.35535-1.6159,2.14555Z" clip-rule="evenodd" fill="#7d8035" fill-rule="evenodd"/></g><clipPath id="eDQFnK5jR8T5"><rect width="18" height="18" rx="0" ry="0" transform="matrix(-1 0 0-1 18 18)" fill="#fff"/></clipPath></g></g></svg>
